<svg xmlns="http://www.w3.org/2000/svg" viewBox="0 0 64 64" fill="none" shape-rendering="geometricPrecision">
<defs>
  <filter id="hud-glow" x="-80%" y="-80%" width="260%" height="260%">
    <feGaussianBlur stdDeviation="1.8" result="blur"/>
    <feMerge>
      <feMergeNode in="blur"/>
      <feMergeNode in="SourceGraphic"/>
    </feMerge>
  </filter>
  <linearGradient id="panel-sheen" x1="0" y1="0" x2="1" y2="1">
    <stop offset="0" stop-color="#1fdcf6" stop-opacity="0.10"/>
    <stop offset="0.42" stop-color="#1fdcf6" stop-opacity="0.02"/>
    <stop offset="1" stop-color="#000000" stop-opacity="0"/>
  </linearGradient>
</defs>
<style>
.line {
  fill: none;
  stroke: #d8ddde;
  stroke-width: 2;
  stroke-linecap: round;
  stroke-linejoin: round;
  vector-effect: non-scaling-stroke;
}
.thin { stroke-width: 1.25; }
.micro { stroke-width: 0.8; }
.muted { stroke: #7c8a90; opacity: 0.72; }
.panel-fill { fill: #03080a; fill-opacity: 0.78; }
.panel-fill-2 { fill: #081014; fill-opacity: 0.54; }
.panel-border {
  fill: none;
  stroke: #d8ddde;
  stroke-opacity: 0.46;
  stroke-width: 1;
  vector-effect: non-scaling-stroke;
}
.cyan { stroke: #1fdcf6; }
.green { stroke: #44e878; }
.red { stroke: #ff4236; }
.amber { stroke: #f6a40f; }
.purple { stroke: #b25fff; }
.fill-line { fill: #d8ddde; stroke: none; }
.fill-muted { fill: #7c8a90; stroke: none; opacity: 0.72; }
.fill-cyan { fill: #1fdcf6; stroke: none; }
.fill-green { fill: #44e878; stroke: none; }
.fill-red { fill: #ff4236; stroke: none; }
.fill-amber { fill: #f6a40f; stroke: none; }
.fill-purple { fill: #b25fff; stroke: none; }
.soft { opacity: 0.36; }
.ghost { opacity: 0.18; }
.label {
  font-family: Menlo, Consolas, Monaco, monospace;
  font-size: 13px;
  letter-spacing: 0;
  fill: #d8ddde;
}
.small-label {
  font-family: Menlo, Consolas, Monaco, monospace;
  font-size: 10px;
  letter-spacing: 0;
  fill: #7c8a90;
}
</style>
<path d="M31 8c13 0 23 9 24 21M50 42c-6 12-21 17-33 9M10 34c-2-13 7-25 20-26" class="line purple" filter="url(#hud-glow)"/>
<path d="M18 20c9-8 24-6 31 4M46 43c-8 8-22 9-31 1M14 36c-3-9 0-18 8-23" class="line thin purple"/>
<path d="M25 22c7-4 16-1 20 6M40 41c-6 5-15 5-21 0M20 33c0-7 5-13 12-14" class="line cyan"/>
<circle cx="32" cy="32" r="9" class="panel-fill"/>
<circle cx="32" cy="32" r="9" class="line"/>
<circle cx="32" cy="32" r="3" class="fill-cyan soft"/>
<path d="M32 9v6M32 49v6M9 32h6M49 32h6" class="line thin muted"/>
</svg>
